<svg id="visual" viewBox="0 0 900 600" width="900" height="600" xmlns="http://www.w3.org/2000/svg" xmlns:xlink="http://www.w3.org/1999/xlink" version="1.1"><g transform="translate(973.4684912739517 -75.49950452153357)"><path d="M233.8 -248C319.3 -206.9 416.2 -148.7 440.6 -69C465 10.7 417 111.8 355.7 193.5C294.4 275.1 219.9 337.2 120.3 406.4C20.7 475.5 -103.9 551.6 -225.5 541.3C-347.2 531 -465.9 434.2 -531.5 311.3C-597.2 188.4 -609.8 39.3 -575.5 -92.1C-541.1 -223.6 -459.9 -337.4 -356.1 -375.3C-252.4 -413.3 -126.2 -375.4 -26 -344.4C74.1 -313.4 148.3 -289.2 233.8 -248" fill="#fef08a"></path></g></svg>